<?xml version="1.0" standalone="no"?>
<!DOCTYPE svg PUBLIC "-//W3C//DTD SVG 20010904//EN"
 "http://www.w3.org/TR/2001/REC-SVG-20010904/DTD/svg10.dtd">
<svg version="1.0" xmlns="http://www.w3.org/2000/svg"
 width="201.000000pt" height="57.000000pt" viewBox="0 0 201.000000 57.000000"
 preserveAspectRatio="xMidYMid meet">

<g transform="translate(0.000000,57.000000) scale(0.100000,-0.100000)"
fill="#000000" stroke="none">
<path d="M133 521 c-123 -56 -123 -250 0 -310 57 -28 103 -27 163 4 27 14 50
25 52 25 1 0 2 -20 2 -45 0 -41 2 -45 25 -45 25 0 25 1 25 80 0 74 -2 82 -29
112 -24 27 -36 32 -90 36 l-61 4 0 -31 c0 -30 1 -31 45 -31 50 0 56 -9 23 -40
-73 -68 -188 -15 -188 87 0 38 5 50 34 79 28 28 42 34 76 34 26 0 53 -8 71
-20 23 -17 33 -19 49 -10 26 14 25 22 -2 48 -49 45 -125 54 -195 23z"/>
<path d="M417 373 c-18 -4 -17 -6 4 -29 12 -13 28 -24 35 -24 18 0 24 -25 24
-101 l0 -69 30 0 30 0 0 69 c0 38 -4 81 -10 95 -14 39 -72 69 -113 59z"/>
</g>
</svg>
